<?xml version="1.0" standalone="no"?>
<!DOCTYPE svg PUBLIC "-//W3C//DTD SVG 20010904//EN"
 "http://www.w3.org/TR/2001/REC-SVG-20010904/DTD/svg10.dtd">
<svg version="1.0" xmlns="http://www.w3.org/2000/svg"
 width="198.000000pt" height="198.000000pt" viewBox="0 0 198.000000 198.000000"
 preserveAspectRatio="xMidYMid meet">
<metadata>
Created by potrace 1.10, written by Peter Selinger 2001-2011
</metadata>
<g transform="translate(0.000000,198.000000) scale(0.100000,-0.100000)"
fill="#000000" stroke="none">
<path d="M486 1113 l-89 -55 -34 16 -33 16 0 -108 0 -107 96 -53 95 -54 94 54
c93 52 95 53 95 91 0 21 -3 36 -7 34 -5 -2 -47 -27 -95 -56 l-86 -51 -66 38
-66 38 35 17 c34 16 36 16 83 -9 l47 -27 63 37 62 37 0 54 c0 52 -1 53 -44 79
-25 14 -46 26 -49 26 -2 0 -30 -38 -62 -85 -32 -46 -62 -82 -68 -78 -5 3 -22
-4 -38 -16 l-29 -22 0 53 c0 41 4 56 18 65 17 10 18 8 17 -18 -1 -15 2 -26 7
-23 5 3 6 14 3 24 -5 15 3 24 34 40 23 11 41 25 41 30 0 6 3 9 8 8 16 -3 60
21 66 37 13 36 9 34 -98 -32z m134 -30 l29 -17 -20 -28 c-11 -15 -24 -26 -29
-23 -5 3 -7 -4 -5 -15 2 -11 0 -20 -4 -20 -4 0 -13 -10 -18 -23 -14 -30 -46
-33 -37 -3 4 17 3 18 -6 6 -9 -11 -13 -12 -17 -2 -2 6 -9 9 -15 6 -6 -4 -3 7
7 24 10 17 23 28 28 25 6 -3 7 -1 3 5 -6 10 39 82 51 82 3 0 18 -8 33 -17z
m44 -61 c-4 -18 -11 -32 -16 -32 -5 0 -7 -3 -5 -7 3 -5 -11 -18 -31 -31 l-35
-23 17 26 c9 14 14 31 10 37 -4 7 -3 8 4 4 11 -7 38 32 34 47 -1 5 2 6 8 2 5
-3 10 -1 10 6 0 7 2 10 5 7 3 -3 2 -19 -1 -36z m-287 -62 c-1 -43 -6 -75 -10
-71 -11 11 -21 125 -13 146 13 36 24 0 23 -75z m303 -72 c0 -6 -3 -9 -6 -6 -3
3 -17 -5 -30 -17 -15 -14 -32 -21 -41 -18 -11 4 -14 2 -9 -5 5 -8 0 -12 -14
-12 -11 0 -23 -6 -26 -14 -9 -24 -34 -28 -34 -5 0 11 4 18 9 15 4 -3 28 7 52
23 24 15 50 26 58 23 8 -3 11 0 7 6 -3 6 0 13 6 15 21 9 28 8 28 -5z m-239
-33 c11 -4 18 -9 16 -12 -8 -7 -67 26 -67 38 0 6 7 4 15 -5 8 -8 24 -18 36
-21z"/>
<path d="M818 1154 c-15 -8 -32 -23 -38 -34 -16 -30 -13 -242 5 -266 41 -59
139 -53 169 10 23 49 20 56 -19 56 -23 0 -35 -5 -35 -14 0 -20 -25 -37 -44
-30 -24 9 -24 219 0 228 19 7 44 -10 44 -30 0 -9 12 -14 35 -14 39 0 40 3 24
50 -8 22 -22 37 -45 46 -42 17 -62 17 -96 -2z m10 -44 c-14 -22 -24 -19 -15 5
4 8 11 15 17 15 6 0 6 -7 -2 -20z m96 5 c3 -8 1 -15 -4 -15 -6 0 -10 7 -10 15
0 8 2 15 4 15 2 0 6 -7 10 -15z m-109 -194 c3 -5 2 -12 -3 -15 -5 -3 -9 1 -9
9 0 17 3 19 12 6z m16 -57 c23 -25 23 -26 2 -13 -13 7 -25 19 -27 26 -8 19 -2
16 25 -13z m92 1 c-3 -9 -8 -14 -10 -11 -3 3 -2 9 2 15 9 16 15 13 8 -4z"/>
<path d="M1498 1154 c-42 -22 -48 -43 -48 -169 0 -109 1 -117 24 -140 33 -33
69 -40 114 -23 52 19 62 46 62 165 0 122 -9 149 -55 168 -43 18 -62 18 -97 -1z
m3 -58 c-8 -9 -11 -48 -10 -111 1 -81 5 -101 20 -116 11 -11 15 -19 9 -19 -5
0 -17 11 -26 25 -13 20 -16 47 -15 122 1 53 6 102 11 108 6 7 8 14 6 17 -1 3
2 2 7 -3 7 -5 6 -13 -2 -23z m110 12 c11 -21 11 -22 -4 -9 -10 7 -17 17 -17
22 0 15 9 10 21 -13z m-43 -10 c19 -19 16 -202 -3 -218 -12 -10 -18 -10 -30 0
-11 9 -15 35 -15 109 0 89 8 121 30 121 3 0 11 -5 18 -12z m46 -223 c-6 -15
-44 -41 -44 -31 0 5 41 46 47 46 1 0 0 -7 -3 -15z"/>
<path d="M1000 990 l0 -170 96 0 95 0 -3 28 c-3 26 -6 27 -60 30 l-58 3 0 39
c0 39 1 40 35 40 32 0 35 2 35 30 0 28 -3 30 -35 30 -34 0 -35 1 -35 40 l0 39
58 3 c54 3 57 4 60 31 l3 27 -95 0 -96 0 0 -170z m59 124 c-16 -20 -28 -17
-26 5 1 12 7 17 19 13 14 -3 16 -7 7 -18z m-14 -34 c3 -5 1 -10 -4 -10 -6 0
-11 5 -11 10 0 6 2 10 4 10 3 0 8 -4 11 -10z m-2 -45 c-3 -8 0 -15 5 -15 19 0
24 -39 8 -56 -15 -14 -16 -12 -17 18 -1 18 -3 43 -4 55 -1 12 1 20 6 17 4 -2
6 -11 2 -19z m14 -170 c0 -22 -23 -26 -24 -4 -1 10 4 19 11 19 7 0 13 -7 13
-15z"/>
<path d="M1220 990 l0 -170 35 0 35 0 0 71 c0 90 17 88 44 -4 18 -66 20 -67
52 -67 19 0 34 3 34 7 0 4 -10 37 -22 74 l-21 67 21 27 c31 39 29 95 -4 134
-25 29 -29 31 -100 31 l-74 0 0 -170z m55 120 c-20 -22 -20 -94 0 -110 14 -12
14 -15 0 -30 -9 -10 -15 -36 -15 -68 0 -29 -3 -52 -7 -52 -5 0 -7 65 -5 144 3
138 4 144 23 139 18 -5 18 -7 4 -23z m90 10 c3 -5 1 -10 -4 -10 -6 0 -11 5
-11 10 0 6 2 10 4 10 3 0 8 -4 11 -10z m25 -20 c0 -5 -5 -10 -11 -10 -5 0 -7
5 -4 10 3 6 8 10 11 10 2 0 4 -4 4 -10z m-42 -35 c3 -19 -2 -33 -14 -42 -33
-24 -44 -16 -44 33 0 44 1 45 28 42 22 -2 28 -9 30 -33z m45 -5 c3 -11 1 -20
-4 -20 -5 0 -9 9 -9 20 0 11 2 20 4 20 2 0 6 -9 9 -20z m-26 -62 c-14 -18 -22
-40 -19 -48 2 -8 1 -12 -3 -8 -4 4 -9 19 -11 34 -1 14 0 23 3 20 4 -3 12 3 20
14 8 11 19 20 24 20 6 0 -1 -15 -14 -32z m13 -118 c0 -5 -4 -10 -10 -10 -5 0
-10 5 -10 10 0 6 5 10 10 10 6 0 10 -4 10 -10z"/>
<path d="M439 993 l-24 -28 28 24 c15 14 27 26 27 28 0 8 -8 1 -31 -24z"/>
</g>
</svg>
